<?xml version="1.0" encoding="utf-8"?>
<svg version="1.1" id="Layer_1"
xmlns="http://www.w3.org/2000/svg"
xmlns:xlink="http://www.w3.org/1999/xlink"
width="64px" height="64px"
xml:space="preserve">
<g id="PathID_1" transform="matrix(0.891534, 0, 0, 0.891534, 62.6, 59)" opacity="1">
<path style="fill:#FF7800;fill-opacity:1" d="M37.8 -42.65L35.75 -26.4L51.85 -23.35L43.35 -9.3L56.8 0.05L43.35 9.35L51.85 23.4L35.75 26.45L37.8 42.7L21.85 38.95L17.15 54.65L4.05 44.75L-6.65 57.15L-14.5 42.8L-29.35 49.8L-30.7 33.45L-47.1 33.8L-41.7 18.3L-56.8 11.95L-45.6 0.05L-56.8 -11.9L-41.7 -18.25L-47.1 -33.75L-30.7 -33.4L-29.35 -49.75L-14.5 -42.75L-6.65 -57.1L4.05 -44.7L17.15 -54.6L21.85 -38.9L37.8 -42.65" />
</g>
<g id="PathID_2" transform="matrix(0.891534, 0, 0, 0.891534, 62.6, 59)" opacity="1">
</g>
<g id="PathID_3" transform="matrix(0.64666, 0, 0, 0.64666, 62.4, 59)" opacity="1">
<path style="fill:#FFFFFF;fill-opacity:1" d="M36 -36.1Q51 -21.1 51 0Q51 21.1 36 36Q21.1 51 0 51Q-21.1 51 -36.1 36Q-51 21.1 -51 0Q-51 -21.1 -36.1 -36.1Q-21.1 -51 0 -51Q21.1 -51 36 -36.1" />
</g>
<g id="PathID_4" transform="matrix(0.64666, 0, 0, 0.64666, 62.4, 59)" opacity="1">
</g>
</svg>
